<?xml version="1.0" standalone="no"?>
<!DOCTYPE svg PUBLIC "-//W3C//DTD SVG 20010904//EN"
 "http://www.w3.org/TR/2001/REC-SVG-20010904/DTD/svg10.dtd">
<svg version="1.0" xmlns="http://www.w3.org/2000/svg"
 width="118.000000pt" height="116.000000pt" viewBox="0 0 118.000000 116.000000"
 preserveAspectRatio="xMidYMid meet">

<g transform="translate(0.000000,116.000000) scale(0.100000,-0.100000)"
fill="#000000" stroke="none">
<path d="M552 1028 c-152 -17 -311 -143 -360 -284 l-10 -32 81 44 c144 76 316
122 552 147 l110 12 -57 38 c-100 66 -196 89 -316 75z"/>
<path d="M750 875 c-190 -26 -373 -81 -495 -150 -61 -34 -102 -69 -59 -50 149
65 459 122 683 126 36 1 78 4 94 8 l27 6 -25 38 c-24 35 -28 37 -78 36 -29 -1
-95 -7 -147 -14z"/>
<path d="M880 773 c-239 -13 -472 -52 -615 -104 -92 -33 -106 -46 -34 -30 93
21 324 41 563 50 136 6 250 12 253 14 2 3 -3 21 -11 41 -17 40 -5 38 -156 29z"/>
<path d="M635 649 c-152 -9 -373 -34 -421 -48 -18 -6 140 -10 411 -10 l441 -1
-4 35 -4 35 -142 -1 c-77 -1 -204 -6 -281 -10z"/>
<path d="M245 540 c90 -26 377 -54 662 -64 l142 -6 6 31 c4 17 5 32 3 33 -1 2
-192 6 -423 9 -239 3 -407 2 -390 -3z"/>
<path d="M330 459 c125 -45 398 -86 599 -90 l84 -2 13 31 13 32 -125 0 c-152
0 -383 16 -518 36 -126 18 -134 17 -66 -7z"/>
<path d="M320 397 c12 -13 162 -66 240 -86 96 -24 274 -51 337 -51 32 0 46 5
58 22 l15 23 -142 12 c-211 17 -372 43 -493 80 -11 3 -18 3 -15 0z"/>
<path d="M230 341 c118 -192 371 -266 577 -169 43 20 45 22 22 29 -13 3 -63
12 -111 18 -169 22 -353 79 -461 143 -26 15 -50 28 -52 28 -3 0 9 -22 25 -49z"/>
</g>
</svg>
