<?xml version="1.0" encoding="UTF-8"?> <svg xmlns="http://www.w3.org/2000/svg" height="78" width="463" viewBox="306 364.5 463 78"> <path d="M512.6 395.1c0-3.4-2.8-5.3-6.6-5.3-3.9 0-6.6 1.7-6.6 4.5 0 3.8 6.1 3.9 7.7 4 7.2 1 16.4 2.9 18.6 12.1.2 1.2.4 2.5.4 3.6 0 10.7-10.4 16.8-20.1 16.8-8.3 0-19.7-5.1-19.7-18.1H499c0 5 4.2 6 7.1 6 4.1 0 7.4-1.2 7.4-4.1 0-3.7-5.8-3.8-7.7-4-8.3-.8-18.1-2.6-19-14.4v.1c-.6-11.3 8.6-18 19.5-18 9.1 0 19 5.1 19 16.9h-12.7v-.1zm33.1 35v-39.5h-13.8v-11.7h40v11.7h-13.7v39.5h-12.5zm46-17.3v17.3h-12.4v-51.2h19.9c20.3 0 23.3 25.1 7.6 32.6l11 16.2v2.3h-13.3l-10.7-17.3h-2.1v.1zm0-11.3h7.2c7.5 0 7.6-10.5 0-10.5h-7.2v10.5zm45.9 16.5h21.2v12.1H625v-51.2h33.7V391h-21.1v7.5h20.7v12.1h-20.7v7.4zm60.1 4.6h-17.5l-2.8 7.5H664l20.5-51.7h8.9l21.3 51.7h-14.1l-2.9-7.5zm-12.5-12.8l-.4 1.2h8.5l-.3-.9-4-11.1-3.8 10.8z"></path> <path d="M380.3 416.4c-34.4-.3-54.2-2.9-65.3-5.5 10 4.7 28.9 10 63 10.7.9-1.6 1.7-3.4 2.3-5.2zM310.4 398c9.5-4.8 29.1-10.8 67.4-11.6-1.5-2.6-3.2-5-5.3-7.1-35.6 1.9-53.5 11.1-62 18 0 .2-.1.5-.1.7zm1.8 8.6c9.7 2.7 29.8 6 69.1 6.3.5-1.9.8-3.8.9-5.8-39.4 0-59.8-.3-70-.5zm70.2-2.6c0-2.2-.2-4.2-.6-6.3-42.2.2-62.5 3.4-71.6 5.7 9.5.3 30.1.6 72.2.6z" fill="#da2032"></path> <path d="M310 400.6v.3c9.6-2.4 30.1-5.4 71.3-5.7-.6-2.4-1.4-4.6-2.5-6.8-40.7.8-60.1 7.5-68.8 12.2zm61.1-22.7c-6.5-6.2-15.3-10-24.9-10-16.7 0-30.8 11.3-35 26.8 9.1-6.8 26.7-14.9 59.9-16.8zm-58.3 40.7c5.6 12.9 18.4 21.9 33.3 21.9 7.5 0 14.4-2.3 20.2-6.1-27.7-2.3-44.1-9.3-53.5-15.8zm62.6 7.1c-27.5-.8-45.1-4.5-56.3-8.6 9.9 5.8 26.1 11.5 52.4 13.1 1.4-1.4 2.7-2.9 3.9-4.5zm28.7-18.6h15v5.8h-15zm0 9.3h15v5.3h-15zm0 9.4h15v4.3h-15zm0-37.4h15v6.8h-15zm0-9.4h15v7.3h-15zm0 18.7h15v6.3h-15zm38.4 9.4l3.9 5.8h13.8l3.9-5.8zm6.4 9.3l4.4 6.6 4.5-6.6zm-22.5-9.3h15v5.8h-15zm0 9.3h15v5.3h-15zm0 9.4h15v4.5h-15zm38.7-18.7H480v5.8h-14.9zm0 18.7H480v4.5h-14.9zm0-9.4H480v5.3h-14.9zm-28.7-37.2h-10v7.1h14.9zm6.3 9.2h-16.3v6.8h20.9zm27.5-9.2l-4.8 7.1h14.7v-7.1zm-6.2 9.2l-4.7 6.8h20.8v-6.8zm-6.4 9.3l-4.3 6.3-4.3-6.3h-22.6v6.3h53.7v-6.3z" fill="#da2032"></path> <path d="M732.3 430.1h-12.5v-51.2h9.9l13.4 19.8 13.4-19.8h9.8v51.2H754v-25.3l-10.8 16.1-10.9-16.2v25.4z"></path> </svg> 