<?xml version="1.0" encoding="UTF-8"?><svg id="a" xmlns="http://www.w3.org/2000/svg" viewBox="0 0 319.52 319.43"><path d="M.04,159.57c0-31.82-.12-63.64,.04-95.46C.23,33.2,20.54,8.06,50.52,1.45c3.99-.88,8.15-1.31,12.23-1.33C89.57,0,116.4-.03,143.22,.06c11.54,.04,19.13,10.35,15.65,20.9-2.24,6.8-8.15,10.86-16.16,10.87-25.83,.04-51.65-.04-77.48,.04-13.85,.04-24.41,6.02-30.23,18.72-2.01,4.38-3,9.62-3.01,14.47-.19,63.14-.19,126.29-.09,189.43,.03,19.31,13.77,33.02,33.1,33.05,63.13,.09,126.26,.09,189.39,0,19.48-.03,33.05-13.82,33.12-33.43,.1-25.83,0-51.66,.04-77.49,.01-8.14,4.25-14.08,11.29-16.2,9.92-2.97,20.3,3.99,20.37,14.34,.2,28.82,.69,57.67-.25,86.47-.98,30.08-28.43,56.51-58.51,58-1.12,.06-2.24,.12-3.37,.12-64.88,0-129.75,.21-194.63-.09-28.56-.13-53.04-19.63-60.19-47.25-1.54-5.96-2.09-12.31-2.13-18.49-.21-31.32-.1-62.64-.09-93.97Z"/><path d="M263.68,31.85c-1.85,0-3.7,0-5.55,0-17.09-.01-34.18,.11-51.27-.11-8.67-.11-15.13-7.19-15.12-15.84,.01-8.65,6.48-15.46,15.17-15.82,3.61-.15,7.23-.06,10.85-.06,28.19,0,56.39-.03,84.58,.02,10.31,.02,16.96,6.3,16.99,16.29,.09,31.69,.07,63.38,0,95.08-.02,7.88-4.68,13.91-11.81,15.82-6.81,1.82-14.36-1.02-17.63-7.34-1.47-2.85-2.2-6.39-2.24-9.63-.22-16.84-.1-33.69-.1-50.53,0-1.34,0-2.69,0-5.02-1.63,1.53-2.68,2.46-3.67,3.45-37.14,37.14-74.3,74.26-111.39,111.45-4.79,4.8-10.2,7.2-16.87,5.49-11.04-2.83-15.48-16.13-8.49-25.14,1.07-1.37,2.35-2.58,3.58-3.82,36.78-36.8,73.55-73.59,110.37-110.35,1.03-1.03,2.49-1.64,3.75-2.45-.38-.5-.76-1-1.14-1.49Z"/></svg>